{
    "asset" : {
        "generator" : "Khronos glTF Blender I/O v0.9.36",
        "version" : "2.0"
    },
    "scene" : 0,
    "scenes" : [
        {
            "name" : "Scene",
            "nodes" : [
                0,
                1,
                2
            ]
        }
    ],
    "nodes" : [
        {
            "mesh" : 0,
            "name" : "Bass_LP",
            "rotation" : [
                0.7071068286895752,
                0,
                0,
                0.7071067094802856
            ],
            "scale" : [
                0.7143874168395996,
                0.7143874168395996,
                0.9486969113349915
            ]
        },
        {
            "mesh" : 1,
            "name" : "Box021",
            "rotation" : [
                0.7071068286895752,
                0,
                0,
                0.7071067094802856
            ],
            "scale" : [
                0.7143874168395996,
                0.7143874168395996,
                0.9486969113349915
            ]
        },
        {
            "mesh" : 2,
            "name" : "Line015",
            "rotation" : [
                0.7071068286895752,
                0,
                0,
                0.7071067094802856
            ],
            "scale" : [
                0.7143874168395996,
                0.7143874168395996,
                0.9486969113349915
            ]
        }
    ],
    "materials" : [
        {
            "doubleSided" : true,
            "name" : "M_Body.001",
            "pbrMetallicRoughness" : {
                "baseColorTexture" : {
                    "index" : 0,
                    "texCoord" : 0
                },
                "metallicFactor" : 0,
                "roughnessFactor" : 0.5
            }
        },
        {
            "doubleSided" : true,
            "name" : "M_Metal.001",
            "pbrMetallicRoughness" : {
                "baseColorFactor" : [
                    0.5882350206375122,
                    0.5882350206375122,
                    0.5882350206375122,
                    1
                ],
                "metallicFactor" : 0,
                "roughnessFactor" : 0.5
            }
        },
        {
            "doubleSided" : true,
            "name" : "M_string.001",
            "pbrMetallicRoughness" : {
                "baseColorFactor" : [
                    0.5882350206375122,
                    0.5882350206375122,
                    0.5882350206375122,
                    1
                ],
                "metallicFactor" : 0,
                "roughnessFactor" : 0.5
            }
        }
    ],
    "meshes" : [
        {
            "name" : "meshId0_name",
            "primitives" : [
                {
                    "attributes" : {
                        "POSITION" : 0,
                        "NORMAL" : 1,
                        "TEXCOORD_0" : 2
                    },
                    "indices" : 3,
                    "material" : 0
                }
            ]
        },
        {
            "name" : "meshId1_name",
            "primitives" : [
                {
                    "attributes" : {
                        "POSITION" : 4,
                        "NORMAL" : 5,
                        "TEXCOORD_0" : 6
                    },
                    "indices" : 7,
                    "material" : 1
                }
            ]
        },
        {
            "name" : "meshId2_name",
            "primitives" : [
                {
                    "attributes" : {
                        "POSITION" : 8,
                        "NORMAL" : 9,
                        "TEXCOORD_0" : 10
                    },
                    "indices" : 11,
                    "material" : 2
                }
            ]
        }
    ],
    "textures" : [
        {
            "source" : 0
        }
    ],
    "images" : [
        {
            "bufferView" : 4,
            "mimeType" : "image/jpeg",
            "name" : "M_Body_albedo"
        }
    ],
    "accessors" : [
        {
            "bufferView" : 0,
            "componentType" : 5126,
            "count" : 1085,
            "max" : [
                0.2704310119152069,
                0.9846749901771545,
                0.03554069995880127
            ],
            "min" : [
                -0.2817760109901428,
                -0.9970629811286926,
                -0.03359580039978027
            ],
            "type" : "VEC3"
        },
        {
            "bufferView" : 1,
            "componentType" : 5126,
            "count" : 1085,
            "type" : "VEC3"
        },
        {
            "bufferView" : 2,
            "componentType" : 5126,
            "count" : 1085,
            "type" : "VEC2"
        },
        {
            "bufferView" : 3,
            "componentType" : 5123,
            "count" : 3072,
            "type" : "SCALAR"
        },
        {
            "bufferView" : 5,
            "componentType" : 5126,
            "count" : 341,
            "max" : [
                0.07206913828849792,
                0.9556270241737366,
                0.043613601475954056
            ],
            "min" : [
                -0.16758200526237488,
                -1,
                -0.03666140139102936
            ],
            "type" : "VEC3"
        },
        {
            "bufferView" : 6,
            "componentType" : 5126,
            "count" : 341,
            "type" : "VEC3"
        },
        {
            "bufferView" : 7,
            "componentType" : 5126,
            "count" : 341,
            "type" : "VEC2"
        },
        {
            "bufferView" : 8,
            "componentType" : 5123,
            "count" : 582,
            "type" : "SCALAR"
        },
        {
            "bufferView" : 9,
            "componentType" : 5126,
            "count" : 540,
            "max" : [
                0.05787619948387146,
                0.9531509876251221,
                -0.018612900748848915
            ],
            "min" : [
                -0.06117819994688034,
                -0.9306769967079163,
                -0.039302900433540344
            ],
            "type" : "VEC3"
        },
        {
            "bufferView" : 10,
            "componentType" : 5126,
            "count" : 540,
            "type" : "VEC3"
        },
        {
            "bufferView" : 11,
            "componentType" : 5126,
            "count" : 540,
            "type" : "VEC2"
        },
        {
            "bufferView" : 12,
            "componentType" : 5123,
            "count" : 2706,
            "type" : "SCALAR"
        }
    ],
    "bufferViews" : [
        {
            "buffer" : 0,
            "byteLength" : 13020,
            "byteOffset" : 0
        },
        {
            "buffer" : 0,
            "byteLength" : 13020,
            "byteOffset" : 13020
        },
        {
            "buffer" : 0,
            "byteLength" : 8680,
            "byteOffset" : 26040
        },
        {
            "buffer" : 0,
            "byteLength" : 6144,
            "byteOffset" : 34720
        },
        {
            "buffer" : 0,
            "byteLength" : 1045254,
            "byteOffset" : 40864
        },
        {
            "buffer" : 0,
            "byteLength" : 4092,
            "byteOffset" : 1086120
        },
        {
            "buffer" : 0,
            "byteLength" : 4092,
            "byteOffset" : 1090212
        },
        {
            "buffer" : 0,
            "byteLength" : 2728,
            "byteOffset" : 1094304
        },
        {
            "buffer" : 0,
            "byteLength" : 1164,
            "byteOffset" : 1097032
        },
        {
            "buffer" : 0,
            "byteLength" : 6480,
            "byteOffset" : 1098196
        },
        {
            "buffer" : 0,
            "byteLength" : 6480,
            "byteOffset" : 1104676
        },
        {
            "buffer" : 0,
            "byteLength" : 4320,
            "byteOffset" : 1111156
        },
        {
            "buffer" : 0,
            "byteLength" : 5412,
            "byteOffset" : 1115476
        }
    ],
    "buffers" : [
        {
            "byteLength" : 1120888,
            "uri" : "data:application/octet-stream;base64,"
        }
    ]
}
