{
    "asset" : {
        "generator" : "Khronos glTF Blender I/O v0.9.36",
        "version" : "2.0"
    },
    "scene" : 0,
    "scenes" : [
        {
            "name" : "Scene",
            "nodes" : [
                0,
                1,
                2,
                3
            ]
        }
    ],
    "nodes" : [
        {
            "name" : "Light",
            "rotation" : [
                0.17148083448410034,
                0.7570207715034485,
                -0.2689829468727112,
                0.5702298283576965
            ],
            "translation" : [
                4.076245307922363,
                6.031279563903809,
                -0.9798934459686279
            ]
        },
        {
            "name" : "Camera",
            "rotation" : [
                0.4868214726448059,
                0.33774828910827637,
                -0.20728184282779694,
                0.7784376740455627
            ],
            "translation" : [
                7.358891487121582,
                5.018900394439697,
                6.943098545074463
            ]
        },
        {
            "mesh" : 0,
            "name" : "Cylinder",
            "rotation" : [
                -0.0015096112620085478,
                0.657890796661377,
                0.02000606432557106,
                0.7528460621833801
            ],
            "scale" : [
                7.108074188232422,
                0.6062166690826416,
                5.535439968109131
            ],
            "translation" : [
                0.3083682060241699,
                0.15068674087524414,
                2.678823709487915
            ]
        },
        {
            "mesh" : 1,
            "name" : "Cube",
            "rotation" : [
                -0.003980301786214113,
                0.6524713039398193,
                0.0038178444374352694,
                0.7577933669090271
            ],
            "scale" : [
                8.710330963134766,
                0.17174085974693298,
                0.8409159779548645
            ],
            "translation" : [
                0.734527587890625,
                0.7657675743103027,
                1.251746654510498
            ]
        }
    ],
    "materials" : [
        {
            "doubleSided" : true,
            "name" : "Material.001",
            "pbrMetallicRoughness" : {
                "baseColorTexture" : {
                    "index" : 0,
                    "texCoord" : 0
                },
                "metallicFactor" : 0,
                "roughnessFactor" : 0.5
            }
        },
        {
            "doubleSided" : true,
            "name" : "Material.002",
            "pbrMetallicRoughness" : {
                "baseColorTexture" : {
                    "index" : 1,
                    "texCoord" : 0
                },
                "metallicFactor" : 0,
                "roughnessFactor" : 0.5
            }
        }
    ],
    "meshes" : [
        {
            "name" : "Cylinder",
            "primitives" : [
                {
                    "attributes" : {
                        "POSITION" : 0,
                        "NORMAL" : 1,
                        "TEXCOORD_0" : 2
                    },
                    "indices" : 3,
                    "material" : 0
                }
            ]
        },
        {
            "name" : "Cube.003",
            "primitives" : [
                {
                    "attributes" : {
                        "POSITION" : 4,
                        "NORMAL" : 5,
                        "TEXCOORD_0" : 6
                    },
                    "indices" : 7,
                    "material" : 1
                }
            ]
        }
    ],
    "textures" : [
        {
            "source" : 0
        },
        {
            "source" : 1
        }
    ],
    "images" : [
        {
            "bufferView" : 4,
            "mimeType" : "image/png",
            "name" : "electric_guitar"
        },
        {
            "bufferView" : 9,
            "mimeType" : "image/png",
            "name" : "electric_guitar_arm"
        }
    ],
    "accessors" : [
        {
            "bufferView" : 0,
            "componentType" : 5126,
            "count" : 132,
            "max" : [
                0.03235450014472008,
                1.4834555387496948,
                0.6702354550361633
            ],
            "min" : [
                -1.3658984899520874,
                -1.0655064582824707,
                -0.591371476650238
            ],
            "type" : "VEC3"
        },
        {
            "bufferView" : 1,
            "componentType" : 5126,
            "count" : 132,
            "type" : "VEC3"
        },
        {
            "bufferView" : 2,
            "componentType" : 5126,
            "count" : 132,
            "type" : "VEC2"
        },
        {
            "bufferView" : 3,
            "componentType" : 5123,
            "count" : 339,
            "type" : "SCALAR"
        },
        {
            "bufferView" : 5,
            "componentType" : 5126,
            "count" : 48,
            "max" : [
                1.203155517578125,
                1.1153388023376465,
                1
            ],
            "min" : [
                -1,
                -1.0001405477523804,
                -1.7315188646316528
            ],
            "type" : "VEC3"
        },
        {
            "bufferView" : 6,
            "componentType" : 5126,
            "count" : 48,
            "type" : "VEC3"
        },
        {
            "bufferView" : 7,
            "componentType" : 5126,
            "count" : 48,
            "type" : "VEC2"
        },
        {
            "bufferView" : 8,
            "componentType" : 5123,
            "count" : 84,
            "type" : "SCALAR"
        }
    ],
    "bufferViews" : [
        {
            "buffer" : 0,
            "byteLength" : 1584,
            "byteOffset" : 0
        },
        {
            "buffer" : 0,
            "byteLength" : 1584,
            "byteOffset" : 1584
        },
        {
            "buffer" : 0,
            "byteLength" : 1056,
            "byteOffset" : 3168
        },
        {
            "buffer" : 0,
            "byteLength" : 678,
            "byteOffset" : 4224
        },
        {
            "buffer" : 0,
            "byteLength" : 96572,
            "byteOffset" : 4904
        },
        {
            "buffer" : 0,
            "byteLength" : 576,
            "byteOffset" : 101476
        },
        {
            "buffer" : 0,
            "byteLength" : 576,
            "byteOffset" : 102052
        },
        {
            "buffer" : 0,
            "byteLength" : 384,
            "byteOffset" : 102628
        },
        {
            "buffer" : 0,
            "byteLength" : 168,
            "byteOffset" : 103012
        },
        {
            "buffer" : 0,
            "byteLength" : 194057,
            "byteOffset" : 103180
        }
    ],
    "buffers" : [
        {
            "byteLength" : 297240,
            "uri" : "data:application/octet-stream;base64,"
        }
    ]
}
