{
    "asset" : {
        "generator" : "Khronos glTF Blender I/O v0.9.36",
        "version" : "2.0"
    },
    "scene" : 0,
    "scenes" : [
        {
            "name" : "Scene",
            "nodes" : [
                0,
                1,
                2,
                3,
                4
            ]
        }
    ],
    "nodes" : [
        {
            "name" : "Light",
            "rotation" : [
                -0.6280679106712341,
                -0.06816040724515915,
                -0.7626737356185913,
                -0.13861338794231415
            ],
            "translation" : [
                -10.455526351928711,
                5.903861999511719,
                7.839972496032715
            ]
        },
        {
            "name" : "Camera",
            "rotation" : [
                0.483536034822464,
                0.33687159419059753,
                -0.20870360732078552,
                0.7804827094078064
            ],
            "translation" : [
                12.834632873535156,
                4.958309173583984,
                7.908615589141846
            ]
        },
        {
            "mesh" : 0,
            "name" : "Cube.011_0",
            "rotation" : [
                0,
                0.000577777624130249,
                0,
                1
            ],
            "scale" : [
                7.600426197052002,
                2.201349973678589,
                1.6412923336029053
            ],
            "translation" : [
                -0.018941879272460938,
                6.622910976409912,
                -1.4225282669067383
            ]
        },
        {
            "mesh" : 1,
            "name" : "Cube.011_2.001",
            "rotation" : [
                0,
                0.000577777624130249,
                0,
                1
            ],
            "scale" : [
                7.600426197052002,
                2.201349973678589,
                1.6412923336029053
            ],
            "translation" : [
                -0.009840011596679688,
                4.744217872619629,
                0.08637094497680664
            ]
        },
        {
            "mesh" : 2,
            "name" : "Cube.011_3",
            "scale" : [
                7.600426197052002,
                2.201349973678589,
                1.6412923336029053
            ],
            "translation" : [
                -0.2567787170410156,
                7.375524997711182,
                -1.8590006828308105
            ]
        }
    ],
    "materials" : [
        {
            "doubleSided" : true,
            "emissiveFactor" : [
                0,
                0,
                0
            ],
            "name" : "Piano_Gris_Mate.002",
            "pbrMetallicRoughness" : {
                "baseColorFactor" : [
                    0.05496864765882492,
                    0.046230100095272064,
                    0.03630555421113968,
                    1
                ],
                "metallicFactor" : 0,
                "roughnessFactor" : 0.6000000238418579
            }
        },
        {
            "doubleSided" : true,
            "emissiveFactor" : [
                0,
                0,
                0
            ],
            "name" : "Piano_Gris_Claire_Mate.002",
            "pbrMetallicRoughness" : {
                "baseColorFactor" : [
                    0.2956915497779846,
                    0.23022623360157013,
                    0.1749732792377472,
                    1
                ],
                "metallicFactor" : 0,
                "roughnessFactor" : 0.6000000238418579
            }
        },
        {
            "doubleSided" : true,
            "emissiveFactor" : [
                0,
                0,
                0
            ],
            "name" : "Piano_Pupitre_Gris.002",
            "pbrMetallicRoughness" : {
                "baseColorFactor" : [
                    0.13286319375038147,
                    0.07507980614900589,
                    0.045207805931568146,
                    1
                ],
                "metallicFactor" : 0,
                "roughnessFactor" : 0.6000000238418579
            }
        }
    ],
    "meshes" : [
        {
            "name" : "Cube.011_0.001",
            "primitives" : [
                {
                    "attributes" : {
                        "POSITION" : 0,
                        "NORMAL" : 1
                    },
                    "indices" : 2,
                    "material" : 0
                }
            ]
        },
        {
            "name" : "Cube.011_2.002",
            "primitives" : [
                {
                    "attributes" : {
                        "POSITION" : 3,
                        "NORMAL" : 4
                    },
                    "indices" : 5,
                    "material" : 1
                }
            ]
        },
        {
            "name" : "Cube.011_3.001",
            "primitives" : [
                {
                    "attributes" : {
                        "POSITION" : 6,
                        "NORMAL" : 7
                    },
                    "indices" : 8,
                    "material" : 2
                }
            ]
        }
    ],
    "accessors" : [
        {
            "bufferView" : 0,
            "componentType" : 5126,
            "count" : 159,
            "max" : [
                0.9207189083099365,
                0.010851919651031494,
                0.520916223526001
            ],
            "min" : [
                -0.9832810759544373,
                -0.014288097620010376,
                -0.3499637246131897
            ],
            "type" : "VEC3"
        },
        {
            "bufferView" : 1,
            "componentType" : 5126,
            "count" : 159,
            "type" : "VEC3"
        },
        {
            "bufferView" : 2,
            "componentType" : 5123,
            "count" : 261,
            "type" : "SCALAR"
        },
        {
            "bufferView" : 3,
            "componentType" : 5126,
            "count" : 561,
            "max" : [
                0.9619008898735046,
                2.064239740371704,
                1.3077529668807983
            ],
            "min" : [
                -1.029589056968689,
                -2.106900215148926,
                -1.668017029762268
            ],
            "type" : "VEC3"
        },
        {
            "bufferView" : 4,
            "componentType" : 5126,
            "count" : 561,
            "type" : "VEC3"
        },
        {
            "bufferView" : 5,
            "componentType" : 5123,
            "count" : 1095,
            "type" : "SCALAR"
        },
        {
            "bufferView" : 6,
            "componentType" : 5126,
            "count" : 92,
            "max" : [
                0.3106350004673004,
                0.8689244985580444,
                0.31591373682022095
            ],
            "min" : [
                -0.3106350004673004,
                -0.4390455484390259,
                -0.48257625102996826
            ],
            "type" : "VEC3"
        },
        {
            "bufferView" : 7,
            "componentType" : 5126,
            "count" : 92,
            "type" : "VEC3"
        },
        {
            "bufferView" : 8,
            "componentType" : 5123,
            "count" : 156,
            "type" : "SCALAR"
        }
    ],
    "bufferViews" : [
        {
            "buffer" : 0,
            "byteLength" : 1908,
            "byteOffset" : 0
        },
        {
            "buffer" : 0,
            "byteLength" : 1908,
            "byteOffset" : 1908
        },
        {
            "buffer" : 0,
            "byteLength" : 522,
            "byteOffset" : 3816
        },
        {
            "buffer" : 0,
            "byteLength" : 6732,
            "byteOffset" : 4340
        },
        {
            "buffer" : 0,
            "byteLength" : 6732,
            "byteOffset" : 11072
        },
        {
            "buffer" : 0,
            "byteLength" : 2190,
            "byteOffset" : 17804
        },
        {
            "buffer" : 0,
            "byteLength" : 1104,
            "byteOffset" : 19996
        },
        {
            "buffer" : 0,
            "byteLength" : 1104,
            "byteOffset" : 21100
        },
        {
            "buffer" : 0,
            "byteLength" : 312,
            "byteOffset" : 22204
        }
    ],
    "buffers" : [
        {
            "byteLength" : 22516,
            "uri" : "data:application/octet-stream;base64,"
        }
    ]
}
